<mxfile host="app.diagrams.net" agent="Mozilla/5.0 (Macintosh; Intel Mac OS X 10.15; rv:137.0) Gecko/20100101 Firefox/137.0" version="26.2.13">
  <diagram name="Page-1" id="hr4VwCLxXkGeReC8aCdB">
    <mxGraphModel dx="793" dy="419" grid="1" gridSize="10" guides="1" tooltips="1" connect="1" arrows="1" fold="1" page="1" pageScale="1" pageWidth="850" pageHeight="1100" math="0" shadow="0">
      <root>
        <mxCell id="0" />
        <mxCell id="1" parent="0" />
        <mxCell id="NY-ZbeWi9rxy0Dk3poBg-1" value="Immutable Stack Data Flow" style="swimlane;whiteSpace=wrap;html=1;" vertex="1" parent="1">
          <mxGeometry y="90" width="880" height="640" as="geometry" />
        </mxCell>
        <mxCell id="NY-ZbeWi9rxy0Dk3poBg-2" value="Phoenix" style="swimlane;whiteSpace=wrap;html=1;" vertex="1" parent="NY-ZbeWi9rxy0Dk3poBg-1">
          <mxGeometry x="130" y="120" width="250" height="380" as="geometry" />
        </mxCell>
        <mxCell id="NY-ZbeWi9rxy0Dk3poBg-6" value="&lt;div&gt;Controller&lt;/div&gt;" style="swimlane;fontStyle=0;childLayout=stackLayout;horizontal=1;startSize=30;horizontalStack=0;resizeParent=1;resizeParentMax=0;resizeLast=0;collapsible=1;marginBottom=0;whiteSpace=wrap;html=1;" vertex="1" parent="NY-ZbeWi9rxy0Dk3poBg-2">
          <mxGeometry x="180" y="100" width="60" height="120" as="geometry" />
        </mxCell>
        <mxCell id="NY-ZbeWi9rxy0Dk3poBg-7" value="show" style="text;strokeColor=none;fillColor=none;align=left;verticalAlign=middle;spacingLeft=4;spacingRight=4;overflow=hidden;points=[[0,0.5],[1,0.5]];portConstraint=eastwest;rotatable=0;whiteSpace=wrap;html=1;" vertex="1" parent="NY-ZbeWi9rxy0Dk3poBg-6">
          <mxGeometry y="30" width="60" height="30" as="geometry" />
        </mxCell>
        <mxCell id="NY-ZbeWi9rxy0Dk3poBg-8" value="update" style="text;strokeColor=none;fillColor=none;align=left;verticalAlign=middle;spacingLeft=4;spacingRight=4;overflow=hidden;points=[[0,0.5],[1,0.5]];portConstraint=eastwest;rotatable=0;whiteSpace=wrap;html=1;" vertex="1" parent="NY-ZbeWi9rxy0Dk3poBg-6">
          <mxGeometry y="60" width="60" height="30" as="geometry" />
        </mxCell>
        <mxCell id="NY-ZbeWi9rxy0Dk3poBg-9" value="delete" style="text;strokeColor=none;fillColor=none;align=left;verticalAlign=middle;spacingLeft=4;spacingRight=4;overflow=hidden;points=[[0,0.5],[1,0.5]];portConstraint=eastwest;rotatable=0;whiteSpace=wrap;html=1;" vertex="1" parent="NY-ZbeWi9rxy0Dk3poBg-6">
          <mxGeometry y="90" width="60" height="30" as="geometry" />
        </mxCell>
        <mxCell id="NY-ZbeWi9rxy0Dk3poBg-10" value="Context API" style="swimlane;fontStyle=0;childLayout=stackLayout;horizontal=1;startSize=30;horizontalStack=0;resizeParent=1;resizeParentMax=0;resizeLast=0;collapsible=1;marginBottom=0;whiteSpace=wrap;html=1;" vertex="1" parent="NY-ZbeWi9rxy0Dk3poBg-2">
          <mxGeometry x="100" y="100" width="60" height="120" as="geometry" />
        </mxCell>
        <mxCell id="NY-ZbeWi9rxy0Dk3poBg-11" value="get" style="text;strokeColor=none;fillColor=none;align=left;verticalAlign=middle;spacingLeft=4;spacingRight=4;overflow=hidden;points=[[0,0.5],[1,0.5]];portConstraint=eastwest;rotatable=0;whiteSpace=wrap;html=1;" vertex="1" parent="NY-ZbeWi9rxy0Dk3poBg-10">
          <mxGeometry y="30" width="60" height="30" as="geometry" />
        </mxCell>
        <mxCell id="NY-ZbeWi9rxy0Dk3poBg-12" value="update" style="text;strokeColor=none;fillColor=none;align=left;verticalAlign=middle;spacingLeft=4;spacingRight=4;overflow=hidden;points=[[0,0.5],[1,0.5]];portConstraint=eastwest;rotatable=0;whiteSpace=wrap;html=1;" vertex="1" parent="NY-ZbeWi9rxy0Dk3poBg-10">
          <mxGeometry y="60" width="60" height="30" as="geometry" />
        </mxCell>
        <mxCell id="NY-ZbeWi9rxy0Dk3poBg-13" value="delete" style="text;strokeColor=none;fillColor=none;align=left;verticalAlign=middle;spacingLeft=4;spacingRight=4;overflow=hidden;points=[[0,0.5],[1,0.5]];portConstraint=eastwest;rotatable=0;whiteSpace=wrap;html=1;" vertex="1" parent="NY-ZbeWi9rxy0Dk3poBg-10">
          <mxGeometry y="90" width="60" height="30" as="geometry" />
        </mxCell>
        <mxCell id="NY-ZbeWi9rxy0Dk3poBg-18" value="&lt;div&gt;Schema Layer&lt;/div&gt;" style="swimlane;fontStyle=0;childLayout=stackLayout;horizontal=1;startSize=30;horizontalStack=0;resizeParent=1;resizeParentMax=0;resizeLast=0;collapsible=1;marginBottom=0;whiteSpace=wrap;html=1;" vertex="1" parent="NY-ZbeWi9rxy0Dk3poBg-2">
          <mxGeometry x="20" y="100" width="60" height="90" as="geometry" />
        </mxCell>
        <mxCell id="NY-ZbeWi9rxy0Dk3poBg-19" value="Users" style="text;strokeColor=none;fillColor=none;align=left;verticalAlign=middle;spacingLeft=4;spacingRight=4;overflow=hidden;points=[[0,0.5],[1,0.5]];portConstraint=eastwest;rotatable=0;whiteSpace=wrap;html=1;" vertex="1" parent="NY-ZbeWi9rxy0Dk3poBg-18">
          <mxGeometry y="30" width="60" height="30" as="geometry" />
        </mxCell>
        <mxCell id="NY-ZbeWi9rxy0Dk3poBg-20" value="Posts" style="text;strokeColor=none;fillColor=none;align=left;verticalAlign=middle;spacingLeft=4;spacingRight=4;overflow=hidden;points=[[0,0.5],[1,0.5]];portConstraint=eastwest;rotatable=0;whiteSpace=wrap;html=1;" vertex="1" parent="NY-ZbeWi9rxy0Dk3poBg-18">
          <mxGeometry y="60" width="60" height="30" as="geometry" />
        </mxCell>
        <mxCell id="NY-ZbeWi9rxy0Dk3poBg-41" value="" style="endArrow=classic;html=1;rounded=0;exitX=0;exitY=0.5;exitDx=0;exitDy=0;entryX=1;entryY=0.5;entryDx=0;entryDy=0;" edge="1" parent="NY-ZbeWi9rxy0Dk3poBg-2" source="NY-ZbeWi9rxy0Dk3poBg-9" target="NY-ZbeWi9rxy0Dk3poBg-13">
          <mxGeometry width="50" height="50" relative="1" as="geometry">
            <mxPoint x="300" y="160" as="sourcePoint" />
            <mxPoint x="350" y="110" as="targetPoint" />
          </mxGeometry>
        </mxCell>
        <mxCell id="NY-ZbeWi9rxy0Dk3poBg-43" value="" style="endArrow=classic;html=1;rounded=0;exitX=0;exitY=0.5;exitDx=0;exitDy=0;entryX=1;entryY=0.5;entryDx=0;entryDy=0;" edge="1" parent="NY-ZbeWi9rxy0Dk3poBg-2">
          <mxGeometry width="50" height="50" relative="1" as="geometry">
            <mxPoint x="180" y="177" as="sourcePoint" />
            <mxPoint x="160" y="177" as="targetPoint" />
          </mxGeometry>
        </mxCell>
        <mxCell id="NY-ZbeWi9rxy0Dk3poBg-44" value="" style="endArrow=classic;html=1;rounded=0;exitX=0;exitY=0.5;exitDx=0;exitDy=0;entryX=1;entryY=0.5;entryDx=0;entryDy=0;" edge="1" parent="NY-ZbeWi9rxy0Dk3poBg-2">
          <mxGeometry width="50" height="50" relative="1" as="geometry">
            <mxPoint x="180" y="144.82999999999998" as="sourcePoint" />
            <mxPoint x="160" y="144.82999999999998" as="targetPoint" />
          </mxGeometry>
        </mxCell>
        <mxCell id="NY-ZbeWi9rxy0Dk3poBg-48" value="" style="endArrow=classic;html=1;rounded=0;entryX=1;entryY=0.5;entryDx=0;entryDy=0;exitX=0;exitY=0.5;exitDx=0;exitDy=0;" edge="1" parent="NY-ZbeWi9rxy0Dk3poBg-2" source="NY-ZbeWi9rxy0Dk3poBg-12" target="NY-ZbeWi9rxy0Dk3poBg-20">
          <mxGeometry width="50" height="50" relative="1" as="geometry">
            <mxPoint x="140" y="230" as="sourcePoint" />
            <mxPoint x="190" y="180" as="targetPoint" />
          </mxGeometry>
        </mxCell>
        <mxCell id="NY-ZbeWi9rxy0Dk3poBg-49" value="" style="endArrow=classic;html=1;rounded=0;entryX=1;entryY=0.5;entryDx=0;entryDy=0;exitX=0;exitY=0.5;exitDx=0;exitDy=0;" edge="1" parent="NY-ZbeWi9rxy0Dk3poBg-2" source="NY-ZbeWi9rxy0Dk3poBg-11" target="NY-ZbeWi9rxy0Dk3poBg-19">
          <mxGeometry width="50" height="50" relative="1" as="geometry">
            <mxPoint x="140" y="230" as="sourcePoint" />
            <mxPoint x="190" y="180" as="targetPoint" />
          </mxGeometry>
        </mxCell>
        <mxCell id="NY-ZbeWi9rxy0Dk3poBg-81" value="Worker" style="swimlane;fontStyle=0;childLayout=stackLayout;horizontal=1;startSize=30;horizontalStack=0;resizeParent=1;resizeParentMax=0;resizeLast=0;collapsible=1;marginBottom=0;whiteSpace=wrap;html=1;" vertex="1" parent="NY-ZbeWi9rxy0Dk3poBg-2">
          <mxGeometry x="180" y="40" width="60" height="40" as="geometry" />
        </mxCell>
        <mxCell id="NY-ZbeWi9rxy0Dk3poBg-85" value="Channel" style="swimlane;fontStyle=0;childLayout=stackLayout;horizontal=1;startSize=30;horizontalStack=0;resizeParent=1;resizeParentMax=0;resizeLast=0;collapsible=1;marginBottom=0;whiteSpace=wrap;html=1;" vertex="1" parent="NY-ZbeWi9rxy0Dk3poBg-2">
          <mxGeometry x="180" y="240" width="60" height="60" as="geometry" />
        </mxCell>
        <mxCell id="NY-ZbeWi9rxy0Dk3poBg-86" value="api" style="text;strokeColor=none;fillColor=none;align=left;verticalAlign=middle;spacingLeft=4;spacingRight=4;overflow=hidden;points=[[0,0.5],[1,0.5]];portConstraint=eastwest;rotatable=0;whiteSpace=wrap;html=1;" vertex="1" parent="NY-ZbeWi9rxy0Dk3poBg-85">
          <mxGeometry y="30" width="60" height="30" as="geometry" />
        </mxCell>
        <mxCell id="NY-ZbeWi9rxy0Dk3poBg-91" value="" style="endArrow=classic;html=1;rounded=0;entryX=1.033;entryY=1.087;entryDx=0;entryDy=0;entryPerimeter=0;exitX=0;exitY=0;exitDx=0;exitDy=0;" edge="1" parent="NY-ZbeWi9rxy0Dk3poBg-2" source="NY-ZbeWi9rxy0Dk3poBg-85" target="NY-ZbeWi9rxy0Dk3poBg-13">
          <mxGeometry width="50" height="50" relative="1" as="geometry">
            <mxPoint x="300" y="210" as="sourcePoint" />
            <mxPoint x="350" y="160" as="targetPoint" />
          </mxGeometry>
        </mxCell>
        <mxCell id="NY-ZbeWi9rxy0Dk3poBg-92" value="" style="endArrow=classic;html=1;rounded=0;entryX=1;entryY=0;entryDx=0;entryDy=0;exitX=0;exitY=1;exitDx=0;exitDy=0;" edge="1" parent="NY-ZbeWi9rxy0Dk3poBg-2" source="NY-ZbeWi9rxy0Dk3poBg-81" target="NY-ZbeWi9rxy0Dk3poBg-10">
          <mxGeometry width="50" height="50" relative="1" as="geometry">
            <mxPoint x="300" y="210" as="sourcePoint" />
            <mxPoint x="350" y="160" as="targetPoint" />
          </mxGeometry>
        </mxCell>
        <mxCell id="NY-ZbeWi9rxy0Dk3poBg-3" value="React / Redux" style="swimlane;whiteSpace=wrap;html=1;" vertex="1" parent="NY-ZbeWi9rxy0Dk3poBg-1">
          <mxGeometry x="560" y="120" width="280" height="490" as="geometry" />
        </mxCell>
        <mxCell id="NY-ZbeWi9rxy0Dk3poBg-22" value="" style="shape=process;whiteSpace=wrap;html=1;backgroundOutline=1;" vertex="1" parent="NY-ZbeWi9rxy0Dk3poBg-3">
          <mxGeometry x="70" y="30" width="120" height="40" as="geometry" />
        </mxCell>
        <mxCell id="NY-ZbeWi9rxy0Dk3poBg-23" value="Global Store" style="text;html=1;align=center;verticalAlign=middle;whiteSpace=wrap;rounded=0;" vertex="1" parent="NY-ZbeWi9rxy0Dk3poBg-3">
          <mxGeometry x="100" y="35" width="60" height="30" as="geometry" />
        </mxCell>
        <mxCell id="NY-ZbeWi9rxy0Dk3poBg-27" value="" style="triangle;whiteSpace=wrap;html=1;rotation=90;" vertex="1" parent="NY-ZbeWi9rxy0Dk3poBg-3">
          <mxGeometry x="77.5" y="136.5" width="180" height="55" as="geometry" />
        </mxCell>
        <mxCell id="NY-ZbeWi9rxy0Dk3poBg-28" value="" style="triangle;whiteSpace=wrap;html=1;rotation=-90;" vertex="1" parent="NY-ZbeWi9rxy0Dk3poBg-3">
          <mxGeometry x="60" y="54" width="40" height="80" as="geometry" />
        </mxCell>
        <mxCell id="NY-ZbeWi9rxy0Dk3poBg-29" value="reducers" style="text;html=1;align=center;verticalAlign=middle;whiteSpace=wrap;rounded=0;" vertex="1" parent="NY-ZbeWi9rxy0Dk3poBg-3">
          <mxGeometry x="50" y="89" width="60" height="30" as="geometry" />
        </mxCell>
        <mxCell id="NY-ZbeWi9rxy0Dk3poBg-31" value="selectors" style="text;html=1;align=center;verticalAlign=middle;whiteSpace=wrap;rounded=0;" vertex="1" parent="NY-ZbeWi9rxy0Dk3poBg-3">
          <mxGeometry x="137.5" y="68" width="60" height="30" as="geometry" />
        </mxCell>
        <mxCell id="NY-ZbeWi9rxy0Dk3poBg-33" value="" style="verticalLabelPosition=bottom;verticalAlign=top;html=1;shape=mxgraph.basic.acute_triangle;dx=0.5;" vertex="1" parent="NY-ZbeWi9rxy0Dk3poBg-3">
          <mxGeometry x="30" y="224" width="100" height="30" as="geometry" />
        </mxCell>
        <mxCell id="NY-ZbeWi9rxy0Dk3poBg-34" value="dispatch" style="text;html=1;align=center;verticalAlign=middle;whiteSpace=wrap;rounded=0;" vertex="1" parent="NY-ZbeWi9rxy0Dk3poBg-3">
          <mxGeometry x="50" y="228" width="60" height="30" as="geometry" />
        </mxCell>
        <mxCell id="NY-ZbeWi9rxy0Dk3poBg-35" value="Request API" style="swimlane;fontStyle=0;childLayout=stackLayout;horizontal=1;startSize=30;horizontalStack=0;resizeParent=1;resizeParentMax=0;resizeLast=0;collapsible=1;marginBottom=0;whiteSpace=wrap;html=1;" vertex="1" parent="NY-ZbeWi9rxy0Dk3poBg-3">
          <mxGeometry x="37.5" y="124" width="85" height="90" as="geometry" />
        </mxCell>
        <mxCell id="NY-ZbeWi9rxy0Dk3poBg-36" value="&lt;font style=&quot;font-size: 6px;&quot;&gt;fetchUser&lt;/font&gt;" style="text;strokeColor=none;fillColor=none;align=left;verticalAlign=middle;spacingLeft=4;spacingRight=4;overflow=hidden;points=[[0,0.5],[1,0.5]];portConstraint=eastwest;rotatable=0;whiteSpace=wrap;html=1;" vertex="1" parent="NY-ZbeWi9rxy0Dk3poBg-35">
          <mxGeometry y="30" width="85" height="20" as="geometry" />
        </mxCell>
        <mxCell id="NY-ZbeWi9rxy0Dk3poBg-37" value="&lt;font style=&quot;font-size: 6px;&quot;&gt;fetchUsers&lt;/font&gt;" style="text;strokeColor=none;fillColor=none;align=left;verticalAlign=middle;spacingLeft=4;spacingRight=4;overflow=hidden;points=[[0,0.5],[1,0.5]];portConstraint=eastwest;rotatable=0;whiteSpace=wrap;html=1;" vertex="1" parent="NY-ZbeWi9rxy0Dk3poBg-35">
          <mxGeometry y="50" width="85" height="20" as="geometry" />
        </mxCell>
        <mxCell id="NY-ZbeWi9rxy0Dk3poBg-38" value="&lt;font style=&quot;font-size: 6px;&quot;&gt;deletePost&lt;/font&gt;" style="text;strokeColor=none;fillColor=none;align=left;verticalAlign=middle;spacingLeft=4;spacingRight=4;overflow=hidden;points=[[0,0.5],[1,0.5]];portConstraint=eastwest;rotatable=0;whiteSpace=wrap;html=1;" vertex="1" parent="NY-ZbeWi9rxy0Dk3poBg-35">
          <mxGeometry y="70" width="85" height="20" as="geometry" />
        </mxCell>
        <mxCell id="NY-ZbeWi9rxy0Dk3poBg-59" value="" style="shape=internalStorage;whiteSpace=wrap;html=1;backgroundOutline=1;" vertex="1" parent="NY-ZbeWi9rxy0Dk3poBg-3">
          <mxGeometry x="10" y="270" width="260" height="210" as="geometry" />
        </mxCell>
        <mxCell id="NY-ZbeWi9rxy0Dk3poBg-60" value="MY APP" style="text;html=1;align=center;verticalAlign=middle;whiteSpace=wrap;rounded=0;" vertex="1" parent="NY-ZbeWi9rxy0Dk3poBg-3">
          <mxGeometry x="110" y="265" width="60" height="30" as="geometry" />
        </mxCell>
        <mxCell id="NY-ZbeWi9rxy0Dk3poBg-61" value="" style="verticalLabelPosition=bottom;verticalAlign=top;html=1;shape=mxgraph.basic.plaque_frame;dx=10;whiteSpace=wrap;" vertex="1" parent="NY-ZbeWi9rxy0Dk3poBg-3">
          <mxGeometry x="40" y="310" width="220" height="160" as="geometry" />
        </mxCell>
        <mxCell id="NY-ZbeWi9rxy0Dk3poBg-62" value="" style="verticalLabelPosition=bottom;verticalAlign=top;html=1;shape=mxgraph.basic.plaque_frame;dx=10;whiteSpace=wrap;" vertex="1" parent="NY-ZbeWi9rxy0Dk3poBg-3">
          <mxGeometry x="140" y="330" width="100" height="120" as="geometry" />
        </mxCell>
        <mxCell id="NY-ZbeWi9rxy0Dk3poBg-63" value="&lt;font style=&quot;font-size: 8px;&quot;&gt;App Parent Component&lt;/font&gt;" style="text;html=1;align=center;verticalAlign=middle;whiteSpace=wrap;rounded=0;" vertex="1" parent="NY-ZbeWi9rxy0Dk3poBg-3">
          <mxGeometry x="60" y="300" width="160" height="30" as="geometry" />
        </mxCell>
        <mxCell id="NY-ZbeWi9rxy0Dk3poBg-64" value="&lt;font style=&quot;font-size: 8px;&quot;&gt;App Child Component&lt;/font&gt;" style="text;html=1;align=center;verticalAlign=middle;whiteSpace=wrap;rounded=0;" vertex="1" parent="NY-ZbeWi9rxy0Dk3poBg-3">
          <mxGeometry x="110" y="320" width="160" height="30" as="geometry" />
        </mxCell>
        <mxCell id="NY-ZbeWi9rxy0Dk3poBg-65" value="&lt;div style=&quot;line-height: 40%;&quot;&gt;&lt;h1 style=&quot;margin-top: 0px; line-height: 40%;&quot;&gt;&lt;font style=&quot;font-size: 4px; line-height: 40%;&quot;&gt;Page&lt;/font&gt;&lt;/h1&gt;&lt;p&gt;&lt;font style=&quot;font-size: 4px; line-height: 40%;&quot;&gt;Lorem ipsum dolor sit amet, consectetur adipisicing elit, sed do eiusmod tempor incididunt ut labore et dolore magna aliqua.&lt;/font&gt;&lt;/p&gt;&lt;/div&gt;" style="text;html=1;whiteSpace=wrap;overflow=hidden;rounded=0;" vertex="1" parent="NY-ZbeWi9rxy0Dk3poBg-3">
          <mxGeometry x="160" y="330" width="60" height="120" as="geometry" />
        </mxCell>
        <mxCell id="NY-ZbeWi9rxy0Dk3poBg-66" value="" style="rounded=1;whiteSpace=wrap;html=1;" vertex="1" parent="NY-ZbeWi9rxy0Dk3poBg-3">
          <mxGeometry x="180" y="410" width="40" height="20" as="geometry" />
        </mxCell>
        <mxCell id="NY-ZbeWi9rxy0Dk3poBg-67" value="Button" style="text;html=1;align=center;verticalAlign=middle;whiteSpace=wrap;rounded=0;" vertex="1" parent="NY-ZbeWi9rxy0Dk3poBg-3">
          <mxGeometry x="180" y="410" width="40" height="20" as="geometry" />
        </mxCell>
        <mxCell id="NY-ZbeWi9rxy0Dk3poBg-68" value="" style="endArrow=none;dashed=1;html=1;rounded=0;entryX=0;entryY=0.5;entryDx=0;entryDy=0;exitX=0.475;exitY=0.908;exitDx=0;exitDy=0;exitPerimeter=0;" edge="1" parent="NY-ZbeWi9rxy0Dk3poBg-3" source="NY-ZbeWi9rxy0Dk3poBg-34" target="NY-ZbeWi9rxy0Dk3poBg-67">
          <mxGeometry width="50" height="50" relative="1" as="geometry">
            <mxPoint x="20" y="400" as="sourcePoint" />
            <mxPoint x="70" y="350" as="targetPoint" />
          </mxGeometry>
        </mxCell>
        <mxCell id="NY-ZbeWi9rxy0Dk3poBg-69" value="" style="endArrow=none;dashed=1;html=1;rounded=0;entryX=1;entryY=0.5;entryDx=0;entryDy=0;exitX=0.75;exitY=0;exitDx=0;exitDy=0;" edge="1" parent="NY-ZbeWi9rxy0Dk3poBg-3" source="NY-ZbeWi9rxy0Dk3poBg-65" target="NY-ZbeWi9rxy0Dk3poBg-27">
          <mxGeometry width="50" height="50" relative="1" as="geometry">
            <mxPoint x="20" y="400" as="sourcePoint" />
            <mxPoint x="70" y="350" as="targetPoint" />
          </mxGeometry>
        </mxCell>
        <mxCell id="NY-ZbeWi9rxy0Dk3poBg-76" value="" style="endArrow=classic;html=1;rounded=0;entryX=0.5;entryY=1;entryDx=0;entryDy=0;exitX=0.296;exitY=-0.001;exitDx=0;exitDy=0;exitPerimeter=0;" edge="1" parent="NY-ZbeWi9rxy0Dk3poBg-3" source="NY-ZbeWi9rxy0Dk3poBg-59" target="NY-ZbeWi9rxy0Dk3poBg-34">
          <mxGeometry width="50" height="50" relative="1" as="geometry">
            <mxPoint x="-100" y="290" as="sourcePoint" />
            <mxPoint x="-50" y="240" as="targetPoint" />
          </mxGeometry>
        </mxCell>
        <mxCell id="NY-ZbeWi9rxy0Dk3poBg-79" value="" style="endArrow=classic;html=1;rounded=0;entryX=0.75;entryY=0;entryDx=0;entryDy=0;exitX=0.567;exitY=0.059;exitDx=0;exitDy=0;exitPerimeter=0;" edge="1" parent="NY-ZbeWi9rxy0Dk3poBg-3" source="NY-ZbeWi9rxy0Dk3poBg-64" target="NY-ZbeWi9rxy0Dk3poBg-65">
          <mxGeometry width="50" height="50" relative="1" as="geometry">
            <mxPoint x="150" y="320" as="sourcePoint" />
            <mxPoint x="200" y="270" as="targetPoint" />
          </mxGeometry>
        </mxCell>
        <mxCell id="NY-ZbeWi9rxy0Dk3poBg-80" value="" style="endArrow=classic;html=1;rounded=0;exitX=0.25;exitY=0;exitDx=0;exitDy=0;entryX=0.25;entryY=0;entryDx=0;entryDy=0;" edge="1" parent="NY-ZbeWi9rxy0Dk3poBg-3" source="NY-ZbeWi9rxy0Dk3poBg-64" target="NY-ZbeWi9rxy0Dk3poBg-65">
          <mxGeometry width="50" height="50" relative="1" as="geometry">
            <mxPoint x="150" y="330" as="sourcePoint" />
            <mxPoint x="200" y="280" as="targetPoint" />
          </mxGeometry>
        </mxCell>
        <mxCell id="NY-ZbeWi9rxy0Dk3poBg-4" value="&lt;div&gt;router&lt;/div&gt;" style="text;html=1;align=center;verticalAlign=middle;whiteSpace=wrap;rounded=0;" vertex="1" parent="NY-ZbeWi9rxy0Dk3poBg-1">
          <mxGeometry x="380" y="240" width="60" height="30" as="geometry" />
        </mxCell>
        <mxCell id="NY-ZbeWi9rxy0Dk3poBg-24" value="" style="shape=cylinder3;whiteSpace=wrap;html=1;boundedLbl=1;backgroundOutline=1;size=15;" vertex="1" parent="NY-ZbeWi9rxy0Dk3poBg-1">
          <mxGeometry x="30" y="235" width="60" height="80" as="geometry" />
        </mxCell>
        <mxCell id="NY-ZbeWi9rxy0Dk3poBg-25" value="Database" style="text;html=1;align=center;verticalAlign=middle;whiteSpace=wrap;rounded=0;" vertex="1" parent="NY-ZbeWi9rxy0Dk3poBg-1">
          <mxGeometry x="30" y="190" width="60" height="30" as="geometry" />
        </mxCell>
        <mxCell id="NY-ZbeWi9rxy0Dk3poBg-39" value="" style="ellipse;whiteSpace=wrap;html=1;aspect=fixed;" vertex="1" parent="NY-ZbeWi9rxy0Dk3poBg-1">
          <mxGeometry x="375" y="270" width="10" height="10" as="geometry" />
        </mxCell>
        <mxCell id="NY-ZbeWi9rxy0Dk3poBg-45" value="" style="endArrow=classic;html=1;rounded=0;exitX=0.467;exitY=1.267;exitDx=0;exitDy=0;entryX=1;entryY=0.5;entryDx=0;entryDy=0;exitPerimeter=0;" edge="1" parent="NY-ZbeWi9rxy0Dk3poBg-1" source="NY-ZbeWi9rxy0Dk3poBg-39" target="NY-ZbeWi9rxy0Dk3poBg-9">
          <mxGeometry width="50" height="50" relative="1" as="geometry">
            <mxPoint x="340" y="355" as="sourcePoint" />
            <mxPoint x="320" y="355" as="targetPoint" />
          </mxGeometry>
        </mxCell>
        <mxCell id="NY-ZbeWi9rxy0Dk3poBg-46" value="" style="endArrow=classic;html=1;rounded=0;exitX=0;exitY=1;exitDx=0;exitDy=0;entryX=1.006;entryY=0.367;entryDx=0;entryDy=0;entryPerimeter=0;" edge="1" parent="NY-ZbeWi9rxy0Dk3poBg-1" source="NY-ZbeWi9rxy0Dk3poBg-39" target="NY-ZbeWi9rxy0Dk3poBg-8">
          <mxGeometry width="50" height="50" relative="1" as="geometry">
            <mxPoint x="350" y="365" as="sourcePoint" />
            <mxPoint x="330" y="365" as="targetPoint" />
          </mxGeometry>
        </mxCell>
        <mxCell id="NY-ZbeWi9rxy0Dk3poBg-47" value="" style="endArrow=classic;html=1;rounded=0;exitX=0;exitY=0;exitDx=0;exitDy=0;entryX=1;entryY=0.5;entryDx=0;entryDy=0;" edge="1" parent="NY-ZbeWi9rxy0Dk3poBg-1" source="NY-ZbeWi9rxy0Dk3poBg-39" target="NY-ZbeWi9rxy0Dk3poBg-7">
          <mxGeometry width="50" height="50" relative="1" as="geometry">
            <mxPoint x="360" y="375" as="sourcePoint" />
            <mxPoint x="340" y="375" as="targetPoint" />
          </mxGeometry>
        </mxCell>
        <mxCell id="NY-ZbeWi9rxy0Dk3poBg-50" value="" style="endArrow=classic;html=1;rounded=0;exitX=-0.017;exitY=0.944;exitDx=0;exitDy=0;exitPerimeter=0;entryX=1;entryY=0.5;entryDx=0;entryDy=0;entryPerimeter=0;" edge="1" parent="NY-ZbeWi9rxy0Dk3poBg-1" source="NY-ZbeWi9rxy0Dk3poBg-19" target="NY-ZbeWi9rxy0Dk3poBg-24">
          <mxGeometry width="50" height="50" relative="1" as="geometry">
            <mxPoint x="270" y="360" as="sourcePoint" />
            <mxPoint x="320" y="310" as="targetPoint" />
          </mxGeometry>
        </mxCell>
        <mxCell id="NY-ZbeWi9rxy0Dk3poBg-51" value="" style="endArrow=classic;html=1;rounded=0;exitX=-0.006;exitY=0.152;exitDx=0;exitDy=0;exitPerimeter=0;entryX=1;entryY=0.5;entryDx=0;entryDy=0;" edge="1" parent="NY-ZbeWi9rxy0Dk3poBg-1" source="NY-ZbeWi9rxy0Dk3poBg-35" target="NY-ZbeWi9rxy0Dk3poBg-39">
          <mxGeometry width="50" height="50" relative="1" as="geometry">
            <mxPoint x="560" y="330" as="sourcePoint" />
            <mxPoint x="610" y="280" as="targetPoint" />
          </mxGeometry>
        </mxCell>
        <mxCell id="NY-ZbeWi9rxy0Dk3poBg-72" value="REDUX" style="text;html=1;align=center;verticalAlign=middle;whiteSpace=wrap;rounded=0;rotation=-90;" vertex="1" parent="NY-ZbeWi9rxy0Dk3poBg-1">
          <mxGeometry x="510" y="290" width="60" height="30" as="geometry" />
        </mxCell>
        <mxCell id="NY-ZbeWi9rxy0Dk3poBg-73" value="REACT" style="text;html=1;align=center;verticalAlign=middle;whiteSpace=wrap;rounded=0;rotation=-90;" vertex="1" parent="NY-ZbeWi9rxy0Dk3poBg-1">
          <mxGeometry x="510" y="470" width="60" height="30" as="geometry" />
        </mxCell>
        <mxCell id="NY-ZbeWi9rxy0Dk3poBg-89" value="" style="endArrow=classic;html=1;rounded=0;entryX=1;entryY=0.25;entryDx=0;entryDy=0;exitX=-0.016;exitY=0.81;exitDx=0;exitDy=0;exitPerimeter=0;" edge="1" parent="NY-ZbeWi9rxy0Dk3poBg-1" source="NY-ZbeWi9rxy0Dk3poBg-38" target="NY-ZbeWi9rxy0Dk3poBg-85">
          <mxGeometry width="50" height="50" relative="1" as="geometry">
            <mxPoint x="430" y="330" as="sourcePoint" />
            <mxPoint x="480" y="280" as="targetPoint" />
          </mxGeometry>
        </mxCell>
        <mxCell id="NY-ZbeWi9rxy0Dk3poBg-93" value="" style="endArrow=none;dashed=1;html=1;rounded=0;exitX=1;exitY=0;exitDx=0;exitDy=0;entryX=-0.043;entryY=-0.006;entryDx=0;entryDy=0;entryPerimeter=0;" edge="1" parent="NY-ZbeWi9rxy0Dk3poBg-1" source="NY-ZbeWi9rxy0Dk3poBg-85" target="NY-ZbeWi9rxy0Dk3poBg-28">
          <mxGeometry width="50" height="50" relative="1" as="geometry">
            <mxPoint x="430" y="300" as="sourcePoint" />
            <mxPoint x="480" y="250" as="targetPoint" />
          </mxGeometry>
        </mxCell>
        <mxCell id="NY-ZbeWi9rxy0Dk3poBg-74" value="" style="endArrow=none;dashed=1;html=1;rounded=0;" edge="1" parent="1">
          <mxGeometry width="50" height="50" relative="1" as="geometry">
            <mxPoint x="530" y="470" as="sourcePoint" />
            <mxPoint x="550" y="470" as="targetPoint" />
          </mxGeometry>
        </mxCell>
        <mxCell id="NY-ZbeWi9rxy0Dk3poBg-77" value="" style="endArrow=classic;html=1;rounded=0;" edge="1" parent="1">
          <mxGeometry width="50" height="50" relative="1" as="geometry">
            <mxPoint x="740" y="630" as="sourcePoint" />
            <mxPoint x="720" y="600" as="targetPoint" />
          </mxGeometry>
        </mxCell>
        <mxCell id="NY-ZbeWi9rxy0Dk3poBg-78" value="" style="endArrow=classic;html=1;rounded=0;exitX=1;exitY=0.5;exitDx=0;exitDy=0;" edge="1" parent="1" source="NY-ZbeWi9rxy0Dk3poBg-27">
          <mxGeometry width="50" height="50" relative="1" as="geometry">
            <mxPoint x="730" y="460" as="sourcePoint" />
            <mxPoint x="730" y="470" as="targetPoint" />
          </mxGeometry>
        </mxCell>
        <mxCell id="NY-ZbeWi9rxy0Dk3poBg-94" value="" style="endArrow=classic;html=1;rounded=0;exitX=1;exitY=0;exitDx=0;exitDy=0;" edge="1" parent="1" source="NY-ZbeWi9rxy0Dk3poBg-85">
          <mxGeometry width="50" height="50" relative="1" as="geometry">
            <mxPoint x="430" y="390" as="sourcePoint" />
            <mxPoint x="390" y="440" as="targetPoint" />
          </mxGeometry>
        </mxCell>
      </root>
    </mxGraphModel>
  </diagram>
</mxfile>
